<svg width="107" height="74" viewBox="0 0 107 74" fill="none" xmlns="http://www.w3.org/2000/svg">
<path d="M103.8 10.5H3.20001C1.50001 10.5 0.200012 11.8 0.200012 13.5V84.1C0.200012 85.8 1.50001 87.1 3.20001 87.1H103.7C105.4 87.1 106.7 85.8 106.7 84.1V13.5C106.8 11.8 105.4 10.5 103.8 10.5Z" fill="#69BAE5" stroke="#1D1D1D" stroke-width="0.75" stroke-miterlimit="10" stroke-linecap="round" stroke-linejoin="round"/>
<path d="M0.200012 22.5H106.8" stroke="#1D1D1D" stroke-width="0.75" stroke-miterlimit="10" stroke-linecap="round" stroke-linejoin="round"/>
<path d="M98.1 14.0001C97.3 14.4001 96.7 15.1001 96.5 16.0001C96.2 17.9001 97.4 19.2001 99.2 19.3001C100.6 19.4001 102 18.6001 102.4 17.3001C102.9 15.7001 101.9 14.1001 100.3 13.7001C99.6 13.6001 98.8 13.7001 98.1 14.0001Z" stroke="#1D1D1D" stroke-width="0.75" stroke-miterlimit="10" stroke-linecap="round" stroke-linejoin="round"/>
<path d="M88.5 14.0001C87.7 14.4001 87.1 15.1001 86.9 16.0001C86.6 17.9001 87.8 19.2001 89.6 19.3001C91 19.4001 92.4 18.6001 92.8 17.3001C93.3 15.7001 92.3 14.1001 90.7 13.7001C89.9 13.6001 89.1 13.7001 88.5 14.0001Z" stroke="#1D1D1D" stroke-width="0.75" stroke-miterlimit="10" stroke-linecap="round" stroke-linejoin="round"/>
<path d="M78.8 14.0001C78 14.4001 77.4 15.1001 77.2 16.0001C76.9 17.9001 78.1 19.2001 79.9 19.3001C81.3 19.4001 82.7 18.6001 83.1 17.3001C83.6 15.7001 82.6 14.1001 81 13.7001C80.3 13.6001 79.5 13.7001 78.8 14.0001Z" stroke="#1D1D1D" stroke-width="0.75" stroke-miterlimit="10" stroke-linecap="round" stroke-linejoin="round"/>
<path d="M35.2 18.3C35.3 15.6 37.1 6.90001 44.6 2.90001C52.8 -1.39999 61.3 1.40001 65.3 5.60001C69.2 9.90001 70 15 70.2 18.3L65.7 19.7C65.7 19.7 65.7 6.50001 55 5.40001C42.2 4.10001 39.4 15.4 38.7 19.3L35.2 18.3Z" fill="#FFD873" stroke="#1D1D1D" stroke-width="0.75" stroke-miterlimit="10" stroke-linecap="round" stroke-linejoin="round"/>
<path d="M43.8 52C43.8 52 22 54.1 16.1 60.8C11.1 66.4 7.70001 87.1 7.70001 87.1H95.2C95.2 87.1 92.6 65.7 85.9 59.3C81.1 54.8 64.6 52.6 61.7 52C60.4 52 43.8 52 43.8 52Z" fill="#FFD873" stroke="#1D1D1D" stroke-width="0.75" stroke-miterlimit="10" stroke-linecap="round" stroke-linejoin="round"/>
<path d="M44.6 41.2L44 56C43.8 57 51.7 60.3 61.1 56.8L62 39.5L44.6 41.2Z" fill="#FFF5F5" stroke="#1D1D1D" stroke-width="0.75" stroke-miterlimit="10" stroke-linecap="round" stroke-linejoin="round"/>
<path d="M52.5 3.6001C52.5 3.6001 44 3.6001 38.6 15.4001C35.3 27.3001 35 30.2001 25.9 43.7001C20.6 51.6001 21 56.2001 23.1 59.9001C26.3 65.2001 31.8 67.0001 31.8 67.0001C31.8 67.0001 24.1 60.3001 31.6 52.9001C30.3 59.8001 32.3 60.1001 35.9 63.5001C39.5 67.4001 36.4 71.0001 36.4 71.0001C36.4 71.0001 43.4 69.8001 41.6 59.4001C44.4 62.7001 45 65.2001 44.3 68.4001C45.8 67.8001 48.2 65.0001 47.4 59.4001C46.6 54.4001 43.8 51.5001 44.5 44.7001C45.2 37.2001 52.5 3.6001 52.5 3.6001Z" fill="#1D1D1D" stroke="#1D1D1D" stroke-width="0.75" stroke-miterlimit="10" stroke-linecap="round" stroke-linejoin="round"/>
<path d="M52.7 3.30003C52.7 3.30003 62.2 2.70003 65.8 10.8C69.5 18.9 67.7 34.4 73.9 40.4C78.1 44.2 82.2 40.6 82.2 40.6C82.2 40.6 82.2 47.4 75.3 48.1C79.9 55.4 77.7 63.4 68.9 66.2C72.3 61.6 70.3 55.7 70.3 55.7C70.3 55.7 62.7 64.1 67.2 69.4C59.5 67 55.5 61 59.1 51.5C63.3 41 62.9 36.4 61.6 24.9C59.9 9.10003 52.7 3.30003 52.7 3.30003Z" fill="#1D1D1D" stroke="#1D1D1D" stroke-width="0.75" stroke-miterlimit="10" stroke-linecap="round" stroke-linejoin="round"/>
<path d="M39.1 18.3001C39.1 18.3001 33 17.6001 32.9 19.6001C32.5 21.7001 33.1 31.7001 33.8 33.3001C34.2 34.1001 35 34.0001 35.8 34.0001C37.6 34.0001 39.7 33.7001 39.7 33.7001L39.1 18.3001Z" fill="#FFD873" stroke="#1D1D1D" stroke-width="0.75" stroke-miterlimit="10" stroke-linecap="round" stroke-linejoin="round"/>
<path d="M35.2 18.3C34.7 20.8 35.2 31.4001 36.2 33.9001" stroke="#1D1D1D" stroke-width="0.75" stroke-miterlimit="10" stroke-linecap="round" stroke-linejoin="round"/>
<path d="M66.4 18.3001C66.4 18.3001 72.5 17.6001 72.6 19.6001C72.7 21.3001 72.6 30.4001 71.7 33.2001C71.4 34.0001 70.8 34.0001 70 34.0001C68.2 34.0001 65.9 33.8001 65.9 33.8001L66.4 18.3001Z" fill="#FFD873" stroke="#1D1D1D" stroke-width="0.75" stroke-miterlimit="10" stroke-linecap="round" stroke-linejoin="round"/>
<path d="M70.3 18.3C70.8 22.5 70.1 31.2001 69.3 33.9001" stroke="#1D1D1D" stroke-width="0.75" stroke-miterlimit="10" stroke-linecap="round" stroke-linejoin="round"/>
<path d="M53.2 46.7001C46.9 46.7001 39.8 41.3001 38.6 27.6001C37.4 13.6001 44.2 5.6001 53.2 5.6001C64.9 5.7001 67.6 16.4001 66.9 27.3001C66.4 37.2001 61.4 46.3001 53.2 46.7001Z" fill="#FFF5F5" stroke="#1D1D1D" stroke-width="0.75" stroke-miterlimit="10" stroke-linecap="round" stroke-linejoin="round"/>
<path d="M55.1 33.1001C53.4 29.6001 53 24.6001 53 24.6001" stroke="#1D1D1D" stroke-width="0.75" stroke-miterlimit="10" stroke-linecap="round" stroke-linejoin="round"/>
<path d="M58.9 23.2C58.4 23.8 58.4 24.9 58.7 25.5C58.9 26 59.4 26.4 60 26.3C61.2 26.2 61.6 24.1 60.9 23.3C60.5 22.8 59.8 22.6 59.2 22.9C59 23 59 23.1 58.9 23.2Z" fill="#1D1D1D" stroke="#1D1D1D" stroke-width="0.75" stroke-miterlimit="10" stroke-linecap="round" stroke-linejoin="round"/>
<path d="M41.2 19.6999C43.8 18.2999 47 17.1999 50.1 19.3999" stroke="#1D1D1D" stroke-width="0.75" stroke-miterlimit="10" stroke-linecap="round" stroke-linejoin="round"/>
<path d="M64.3 19.7001C62.5 18.2001 59.5 17.1001 56.1 19.1001" stroke="#1D1D1D" stroke-width="0.75" stroke-miterlimit="10" stroke-linecap="round" stroke-linejoin="round"/>
<path d="M45 23.2C44.5 23.8 44.5 24.9 44.8 25.5C45 26 45.5 26.4 46.1 26.3C47.3 26.2 47.7 24.1 47 23.3C46.6 22.8 45.9 22.6 45.3 22.9C45.2 23 45.1 23.1 45 23.2Z" fill="#1D1D1D" stroke="#1D1D1D" stroke-width="0.75" stroke-miterlimit="10" stroke-linecap="round" stroke-linejoin="round"/>
<path d="M48.9 24.3C47.8 23 45 21.3 41.9 24.3" stroke="#1D1D1D" stroke-width="0.75" stroke-miterlimit="10" stroke-linecap="round" stroke-linejoin="round"/>
<path d="M57 24.6999C59.8 20.7999 63.1 23.1999 64 23.8999" stroke="#1D1D1D" stroke-width="0.75" stroke-miterlimit="10" stroke-linecap="round" stroke-linejoin="round"/>
<path d="M48.2 36C49.5 37.7 54.4 39.4 58.3 36.3" stroke="#1D1D1D" stroke-width="0.75" stroke-miterlimit="10" stroke-linecap="round" stroke-linejoin="round"/>
<path d="M47.5 36.5999C47.7 36.2999 48.1 35.6999 48.4 35.3999" stroke="#1D1D1D" stroke-width="0.75" stroke-miterlimit="10" stroke-linecap="round" stroke-linejoin="round"/>
<path d="M57.4 6.30005C57.4 6.30005 55.3 5.30005 52.1 6.30005C55.4 3.80005 55.4 3.80005 55.4 3.80005C55.4 3.80005 57.4 5.00005 57.4 6.30005Z" fill="#1D1D1D" stroke="#1D1D1D" stroke-width="0.75" stroke-miterlimit="10" stroke-linecap="round" stroke-linejoin="round"/>
<path d="M57.4 6.30011C57.4 6.30011 60.2 7.40011 62.6 13.7001C64.9 19.6001 67.6 18.0001 67.6 18.0001C67.6 18.0001 66 11.0001 62.6 7.90011C59.7 5.20011 57.4 6.30011 57.4 6.30011Z" fill="#1D1D1D" stroke="#1D1D1D" stroke-width="0.75" stroke-miterlimit="10" stroke-linecap="round" stroke-linejoin="round"/>
<path d="M37.6 19.2001C37.5 20.8001 37.6 24.4001 36.4 27.6001C40.9 23.5001 46.7 12.0001 46.7 12.0001C46.7 12.0001 47.5 14.5001 44.7 20.6001C47.8 19.2001 50.4 14.9001 51.8 12.1001C53.6 8.80006 55.2 5.70006 57.4 6.40006C57.4 6.40006 58.3 2.40006 51.1 3.60006C45.6 4.50006 38.5 8.90006 37.6 19.2001Z" fill="#1D1D1D" stroke="#1D1D1D" stroke-width="0.75" stroke-miterlimit="10" stroke-linecap="round" stroke-linejoin="round"/>
</svg>
